<svg id="Layer_1" enable-background="new 0 0 128 128" height="512" viewBox="0 0 128 128" width="512" xmlns="http://www.w3.org/2000/svg"><path d="m114.099 57.69h-24.549v-15.601h6.58c1.326 0 2.49-.8 2.966-2.038s.146-2.612-.84-3.5l-30.042-27.057c-1.212-1.091-3.04-1.091-4.252 0l-30.041 27.057c-.985.888-1.315 2.261-.84 3.499.476 1.238 1.64 2.038 2.966 2.038h6.58v15.602h-24.549c-1.168 0-2.118.95-2.118 2.118v11.171c0 1.168.95 2.118 2.118 2.118h2.681v28.635 18.592c0 1.752 1.425 3.177 3.177 3.177h16.474c1.752 0 3.177-1.425 3.177-3.177v-18.592c0-.039-.018-.072-.022-.11 2.498-10.181 11.497-17.265 22.025-17.265s19.526 7.084 22.024 17.266c-.004.038-.022.071-.022.109v18.592c0 1.752 1.425 3.177 3.177 3.177h16.474c1.752 0 3.177-1.425 3.177-3.177v-18.592-28.635h3.68c1.167 0 2.118-.95 2.118-2.118v-11.171c-.002-1.168-.952-2.118-2.119-2.118z" fill="#e6e7e8"/><path d="m17.582 67.803v29.694h20.619c2.419-10.557 11.863-18.434 23.152-18.434s20.734 7.878 23.152 18.434h20.619v-29.694z" fill="#fa759e"/><path d="m17.582 97.497v18.592c0 1.17.948 2.118 2.118 2.118h16.474c1.17 0 2.118-.948 2.118-2.118v-18.592z" fill="#0089ef"/><path d="m84.414 97.497v18.592c0 1.17.948 2.118 2.118 2.118h16.474c1.17 0 2.118-.948 2.118-2.118v-18.592z" fill="#0089ef"/><path d="m93.311 33.103-30.041-27.058c-.806-.726-2.029-.726-2.835 0l-30.041 27.058c-1.442 1.299-.523 3.691 1.417 3.691h60.083c1.941 0 2.859-2.392 1.417-3.691z" fill="#6dc9f7"/><path d="m109.863 54.513h-96.02c-.585 0-1.059.474-1.059 1.059v11.172c0 .585.474 1.059 1.059 1.059h96.02c.585 0 1.059-.474 1.059-1.059v-11.172c0-.585-.475-1.059-1.059-1.059z" fill="#0089ef"/><path d="m109.863 64.626h-96.02c-.585 0-1.059-.474-1.059-1.059v3.177c0 .585.474 1.059 1.059 1.059h96.02c.585 0 1.059-.474 1.059-1.059v-3.177c-.001.585-.475 1.059-1.059 1.059z" fill="#fff"/><path d="m39.45 36.794h44.805v17.719h-44.805z" fill="#fa759e"/><g fill="#3a2c60"><path d="m109.862 53.513h-24.607v-15.719h6.64c1.301 0 2.443-.785 2.91-2s.144-2.563-.824-3.435l-30.042-27.057c-1.189-1.07-2.982-1.07-4.173 0l-30.042 27.058c-.967.871-1.291 2.219-.824 3.434.466 1.215 1.609 2 2.911 2h6.639v15.719h-9.839c-.552 0-1 .448-1 1s.448 1 1 1l81.311.059-.06 11.231-96.079-.059.059-11.231h2.512c.552 0 1-.448 1-1s-.448-1-1-1h-2.512c-1.135 0-2.059.924-2.059 2.059v11.172c0 1.135.924 2.059 2.059 2.059h2.74v28.693 18.592c0 1.719 1.398 3.118 3.118 3.118h16.475c1.719 0 3.118-1.398 3.118-3.118v-18.591c0-.041-.018-.076-.023-.116 2.502-10.212 11.526-17.319 22.084-17.319s19.581 7.106 22.084 17.319c-.005.04-.023.075-.023.116v18.592c0 1.719 1.398 3.118 3.118 3.118h16.475c1.719 0 3.117-1.398 3.117-3.118v-18.592-28.694h3.738c1.136 0 2.06-.924 2.06-2.059v-11.172c-.001-1.135-.925-2.059-2.061-2.059zm-79.094-18.436c-.065-.168-.234-.754.295-1.231l30.041-27.058c.213-.192.481-.288.749-.288s.535.096.748.288l30.042 27.058c.529.478.359 1.064.295 1.232s-.331.717-1.043.717h-60.084c-.713-.001-.979-.549-1.043-.718zm9.682 2.717h42.805v15.719h-42.805zm-3.158 78.295c0 .616-.501 1.118-1.118 1.118h-16.474c-.616 0-1.118-.501-1.118-1.118v-17.592h18.71zm66.832 0c0 .616-.501 1.118-1.117 1.118h-16.475c-.616 0-1.118-.501-1.118-1.118v-17.592h18.71zm0-19.592h-18.835c-2.858-10.894-12.589-18.435-23.935-18.435s-21.077 7.54-23.936 18.434h-18.835v-27.693h85.542v27.694z"/><path d="m20.59 55.513h3.785c.552 0 1-.448 1-1s-.448-1-1-1h-3.785c-.552 0-1 .448-1 1s.448 1 1 1z"/></g></svg>