<svg id="flat" height="512" viewBox="0 0 512 512" width="512" xmlns="http://www.w3.org/2000/svg"><path d="m144 400v-160a8 8 0 0 1 8-8h104v168z" fill="#639aff"/><path d="m256 368v-136h104a8 8 0 0 1 8 8v128z" fill="#486be0"/><path d="m176 232v-56a8 8 0 0 1 8-8h72v64z" fill="#548aff"/><path d="m336 232v-56a8 8 0 0 0 -8-8h-72v64z" fill="#517ef7"/><path d="m208 104h96a8 8 0 0 1 8 8v56a0 0 0 0 1 0 0h-112a0 0 0 0 1 0 0v-56a8 8 0 0 1 8-8z" fill="#639aff"/><path d="m288 104-16-24v-24a8 8 0 0 0 -8-8h-16a8 8 0 0 0 -8 8v24l-16 24z" fill="#7dafff"/><path d="m248 16h16v32h-16z" fill="#486be0"/><g fill="#84d8e8"><path d="m144 264h72v152h-72z"/><path d="m288 256h16v16h-16z"/><path d="m320 256h16v16h-16z"/><path d="m320 288h16v16h-16z"/><path d="m288 288h16v16h-16z"/><path d="m320 320h16v16h-16z"/><path d="m288 320h16v16h-16z"/><path d="m208 192h16v16h-16z"/><path d="m288 192h16v16h-16z"/><path d="m232 128h16v16h-16z"/><path d="m264 128h16v16h-16z"/></g><path d="m144 304h72v16h-72z" fill="#6dc1d6"/><path d="m144 352h72v16h-72z" fill="#6dc1d6"/><path d="m120 488v-88h40.759a86.28914 86.28914 0 0 0 55.241-20 86.28914 86.28914 0 0 1 55.241-20h120.759v128z" fill="#517ef7"/><path d="m264 384h32v16h-32z" fill="#3b57c4"/><path d="m264 416h32v16h-32z" fill="#3b57c4"/><path d="m208 416h32v16h-32z" fill="#3b57c4"/><path d="m320 384h72v16h-72z" fill="#3b57c4"/><path d="m320 416h72v16h-72z" fill="#3b57c4"/><path d="m264 448h32v16h-32z" fill="#3b57c4"/><path d="m208 448h32v16h-32z" fill="#3b57c4"/><path d="m152 448h32v16h-32z" fill="#3b57c4"/><path d="m320 448h72v16h-72z" fill="#3b57c4"/></svg>