<svg height="512" viewBox="0 0 64 64" width="512" xmlns="http://www.w3.org/2000/svg"><g id="Police_Station" data-name="Police Station"><path d="m8 23h48v32h-48z" fill="#acabb1"/><path d="m40.64 19h-5.81-2.11-1.44-2.11-5.81-17.36v4h2 16.56 14.88 16.56 2v-4z" fill="#898890"/><path d="m59 11h-18.53-8.47-8.47-18.53-2v8h3 17.36 17.28 17.36 3v-8z" fill="#787680"/><path d="m54 3h-22-22l-5 8h18.53 8.47 8.47 18.53z" fill="#898890"/><path d="m22 41h20v14h-20z" fill="#e6e7e8"/><path d="m22 55h20v3h-20z" fill="#acabb1"/><path d="m22 58h20v3h-20z" fill="#898890"/><path d="m61 55v6h-19v-3-3h14z" fill="#787680"/><path d="m22 58v3h-19v-6h5 14z" fill="#787680"/><path d="m12 45h6v4h-6z" fill="#e6e7e8"/><path d="m46 45h6v4h-6z" fill="#e6e7e8"/><path d="m45 37v4h-3-20-3v-4z" fill="#57565c"/><path d="m19 33h26v4h-26z" fill="#787680"/><path d="m40.47 11a11.91 11.91 0 0 0 -.47 3 13.967 13.967 0 0 0 .43 3.03 8.2 8.2 0 0 1 .21 1.97 7.863 7.863 0 0 1 -1.2 4 8.17 8.17 0 0 1 -2.23 2.35l-5.21 3.65-5.21-3.65a8.17 8.17 0 0 1 -2.23-2.35 7.863 7.863 0 0 1 -1.2-4 8.2 8.2 0 0 1 .21-1.97 13.967 13.967 0 0 0 .43-3.03 11.91 11.91 0 0 0 -.47-3 27.06 27.06 0 0 0 -.92-2.63 1 1 0 0 1 .93-1.37h.65a8.028 8.028 0 0 0 5-1.75l1.56-1.25a2 2 0 0 1 2.5 0l1.56 1.25a8.028 8.028 0 0 0 5 1.75h.65a1 1 0 0 1 .93 1.37 27.06 27.06 0 0 0 -.92 2.63z" fill="#ffa733"/><g fill="#ff5023"><path d="m32.72 19h2.11a1 1 0 0 1 -1.52.43z"/><path d="m31.28 19-.59.43a1 1 0 0 1 -1.52-.43z"/><path d="m34.85 18.31a1.012 1.012 0 0 1 -.02.69h-2.11l-.72-.53-.72.53h-2.11a1.012 1.012 0 0 1 -.02-.69l.5-1.55-1.32-.95a1 1 0 0 1 .59-1.81h1.63l.5-1.55a1 1 0 0 1 1.9 0l.5 1.55h1.63a1 1 0 0 1 .59 1.81l-1.32.95z"/></g><path d="m27.747 16.618.726.528-.273.854a2 2 0 0 0 3.077 2.236l.723-.528.727.528a2 2 0 0 0 3.073-2.236l-.277-.854.726-.528a2 2 0 0 0 -1.171-3.618h-.9l-.278-.854a2 2 0 0 0 -3.8 0l-.28.854h-.9a2 2 0 0 0 -1.175 3.618zm2.8-1.618a1 1 0 0 0 .951-.691l.5-1.557v.012l.5 1.545a1 1 0 0 0 .951.691h1.625l-1.315.955a1 1 0 0 0 -.363 1.118l.5 1.545-1.314-.955a1 1 0 0 0 -1.176 0l-1.314.955.5-1.545a1 1 0 0 0 -.363-1.118l-1.307-.955z"/><path d="m58 24a1 1 0 0 0 1-1v-3h2a1 1 0 0 0 1-1v-8a1 1 0 0 0 -1-1h-1.446l-4.706-7.53a1 1 0 0 0 -.848-.47h-44a1 1 0 0 0 -.848.47l-4.706 7.53h-1.446a1 1 0 0 0 -1 1v8a1 1 0 0 0 1 1h2v3a1 1 0 0 0 1 1h1v30h-4a1 1 0 0 0 -1 1v6a1 1 0 0 0 1 1h58a1 1 0 0 0 1-1v-6a1 1 0 0 0 -1-1h-4v-30zm-1-2h-15.947a8.865 8.865 0 0 0 .485-2h15.462zm-32.454-4.741a14.793 14.793 0 0 0 .454-3.259 17.252 17.252 0 0 0 -1.461-6h.655a9.029 9.029 0 0 0 5.622-1.972l1.559-1.248a1 1 0 0 1 1.25 0l1.559 1.248a9.029 9.029 0 0 0 5.622 1.972l.657-.006a17.276 17.276 0 0 0 -1.463 6.006 14.809 14.809 0 0 0 .454 3.26 6.919 6.919 0 0 1 -2.814 7.271l-4.64 3.248-4.641-3.248a6.921 6.921 0 0 1 -2.813-7.272zm35.454.741h-18.412a9.013 9.013 0 0 0 -.187-1.2 12.88 12.88 0 0 1 -.401-2.8 9.582 9.582 0 0 1 .269-2h18.731zm-2.8-8h-15.353c.142-.407.291-.819.466-1.247a2 2 0 0 0 -1.852-2.753h-.655a7.022 7.022 0 0 1 -4.372-1.534l-.583-.466h18.6zm-46.646-6h18.6l-.582.466a7.027 7.027 0 0 1 -4.378 1.534h-.655a2 2 0 0 0 -1.851 2.754c.175.427.323.839.465 1.246h-15.353zm-6.554 8h18.731a9.582 9.582 0 0 1 .269 2 12.88 12.88 0 0 1 -.4 2.8 8.988 8.988 0 0 0 -.187 1.2h-18.413zm18.462 8a8.865 8.865 0 0 0 .485 2h-15.947v-2zm-18.462 36h17v4h-17zm40-20h-24v-2h24zm-24 2h24v2h-24zm21 4v12h-18v-12zm-18 17h18v1h-18zm18-2h-18v-1h18zm19 3h-17v-4h17zm-5-6h-12v-12h2a1 1 0 0 0 1-1v-8a1 1 0 0 0 -1-1h-26a1 1 0 0 0 -1 1v8a1 1 0 0 0 1 1h2v12h-12v-30h15.043a9.048 9.048 0 0 0 2.17 2.169l5.214 3.65a1 1 0 0 0 1.146 0l5.214-3.65a9.07 9.07 0 0 0 2.171-2.169h15.042z"/><path d="m45 45v4a1 1 0 0 0 1 1h6a1 1 0 0 0 1-1v-4a1 1 0 0 0 -1-1h-6a1 1 0 0 0 -1 1zm2 1h4v2h-4z"/><path d="m12 44a1 1 0 0 0 -1 1v4a1 1 0 0 0 1 1h6a1 1 0 0 0 1-1v-4a1 1 0 0 0 -1-1zm5 4h-4v-2h4z"/></g></svg>